<svg xmlns="http://www.w3.org/2000/svg" aria-hidden="true" style="position:absolute;width:0;height:0;overflow:hidden"><defs><symbol id="icon-a" viewBox="0 0 32 32"><path fill="none" stroke="#fff" stroke-linecap="round" stroke-linejoin="round" stroke-width="2" d="m20 21.333 3.381-9.771a1.36 1.36 0 0 1 2.57 0l3.381 9.771m-8.403-2.666h7.475M2.667 21.333l5.385-12.92a.669.669 0 0 1 1.232 0l5.384 12.92m-10.263-4h8.523" style="stroke:var(--color1, #fff)"/></symbol><symbol id="icon-arrow-down" viewBox="0 0 32 32"><path fill="none" stroke="#717182" stroke-linecap="round" stroke-linejoin="round" stroke-width="2.667" d="m8 12 8 8 8-8" style="stroke:var(--color2, #717182)"/></symbol><symbol id="icon-arrow-left" viewBox="0 0 32 32"><path stroke-linecap="round" stroke-linejoin="round" stroke-width="2.667" d="M24.4 15.41H6.421m0 0 8.989 8.989M6.421 15.41l8.989-8.989"/></symbol><symbol id="icon-arrow-right" viewBox="0 0 32 32"><path stroke-linecap="round" stroke-linejoin="round" stroke-width="2.667" d="M6.421 15.411H24.4m0 0-8.989-8.989m8.989 8.989L15.411 24.4"/></symbol><symbol id="icon-badge-check" viewBox="0 0 32 32"><path fill="none" stroke="#fff" stroke-linecap="round" stroke-linejoin="round" stroke-width="2" d="m12 16 2.667 2.667L20 13.334M5.133 11.493a5.34 5.34 0 0 1 3.723-6.279 5.3 5.3 0 0 1 2.65-.081 5.336 5.336 0 0 1 7.054-1.805 5.34 5.34 0 0 1 1.932 1.805 5.34 5.34 0 0 1 4.942 1.432 5.33 5.33 0 0 1 1.432 4.941 5.336 5.336 0 0 1 1.805 7.054 5.34 5.34 0 0 1-1.805 1.932 5.334 5.334 0 0 1-6.36 6.373 5.333 5.333 0 0 1-9 0 5.32 5.32 0 0 1-4.934-1.429 5.34 5.34 0 0 1-1.439-4.931 5.334 5.334 0 0 1 0-9.012" style="stroke:var(--color1, #fff)"/></symbol><symbol id="icon-book-open" viewBox="0 0 32 32"><path fill="none" stroke="#fff" stroke-linecap="round" stroke-linejoin="round" stroke-width="2.37" d="M16 9.333V28m0-18.667A5.334 5.334 0 0 0 10.667 4H4a1.335 1.335 0 0 0-1.334 1.334v17.333A1.335 1.335 0 0 0 4 24.001h8a4.003 4.003 0 0 1 4 4m0-18.668A5.334 5.334 0 0 1 21.333 4H28a1.335 1.335 0 0 1 1.334 1.334v17.333A1.335 1.335 0 0 1 28 24.001h-8a4.003 4.003 0 0 0-4 4" style="stroke:var(--color1, #fff)"/></symbol><symbol id="icon-book-open-text" viewBox="0 0 32 32"><path fill="none" stroke="#fff" stroke-linecap="round" stroke-linejoin="round" stroke-width="2.37" d="M16 9.333V28m0-18.667A5.334 5.334 0 0 0 10.667 4H4a1.335 1.335 0 0 0-1.334 1.334v17.333A1.335 1.335 0 0 0 4 24.001h8a4.003 4.003 0 0 1 4 4m0-18.668A5.334 5.334 0 0 1 21.333 4H28a1.335 1.335 0 0 1 1.334 1.334v17.333A1.335 1.335 0 0 1 28 24.001h-8a4.003 4.003 0 0 0-4 4M21.333 16H24m-2.667-5.333H24M8 16h2.667M8 10.667h2.667" style="stroke:var(--color1, #fff)"/></symbol><symbol id="icon-brain" viewBox="0 0 32 32"><path fill="none" stroke="#fff" stroke-linecap="round" stroke-linejoin="round" stroke-width="2.37" d="M16 24V6.667M16 24a5.35 5.35 0 0 0 1.688 3.888 5.34 5.34 0 0 0 3.99 1.429 5.333 5.333 0 0 0 4.944-6.005M16 24a5.35 5.35 0 0 1-1.688 3.888 5.34 5.34 0 0 1-3.99 1.429 5.333 5.333 0 0 1-4.944-6.005M16 6.667a4.01 4.01 0 0 1 3.22-3.923 4.01 4.01 0 0 1 3.418.915 4 4 0 0 1 .827 5.007M16 6.667a4.002 4.002 0 0 0-5.035-3.864 3.99 3.99 0 0 0-2.66 2.333 4 4 0 0 0 .231 3.53M20 17.333a5.56 5.56 0 0 1-4-5.334 5.56 5.56 0 0 1-4 5.334m11.996-10.5a5.33 5.33 0 0 1 3.368 7.693M24 24a5.33 5.33 0 0 0 4.928-7.374 5.34 5.34 0 0 0-2.261-2.578M8 24a5.33 5.33 0 0 1-4.928-7.374 5.34 5.34 0 0 1 2.261-2.578m2.671-7.215a5.33 5.33 0 0 0-3.368 7.693" style="stroke:var(--color1, #fff)"/></symbol><symbol id="icon-brain-circuit" viewBox="0 0 32 32"><path fill="none" stroke="#fff" stroke-linecap="round" stroke-linejoin="round" stroke-width="2.37" d="M8.004 6.834A4 4 0 0 1 9.08 3.921a4.005 4.005 0 0 1 4.395-.984A3.99 3.99 0 0 1 16 6.667V24M8.004 6.834a5.33 5.33 0 0 0-3.368 7.693m3.368-7.693c.026.645.208 1.274.531 1.833m-3.899 5.86a5.335 5.335 0 0 0 .741 8.784m-.741-8.784q.367-.298.78-.527m-.039 9.311a5.333 5.333 0 1 0 10.622.688m-10.622-.688c.8.451 1.704.69 2.623.689m8 0h8a2.67 2.67 0 0 1 2.667 2.667V28M12 17.334a6.01 6.01 0 0 0 4-5.333m0 5.333h5.333M16 10.667h10.667m-5.334 0v-4A2.67 2.67 0 0 1 24 4m-2 13.334a.667.667 0 1 1-1.335-.001.667.667 0 0 1 1.335.001M24.667 4a.667.667 0 1 1-1.335-.001.667.667 0 0 1 1.335.001m2.666 24a.667.667 0 1 1-1.335-.001.667.667 0 0 1 1.335.001m0-17.333a.667.667 0 1 1-1.335-.001.667.667 0 0 1 1.335.001" style="stroke:var(--color1, #fff)"/></symbol><symbol id="icon-bus" viewBox="0 0 32 32"><path fill="none" stroke="#fff" stroke-linecap="round" stroke-linejoin="round" stroke-width="2.37" d="M5.333 8 2.666 9.333M13.333 8h5.333m10.667 1.333L26.666 8M24 25.333a2.667 2.667 0 0 0 2.667-2.667v-16A2.667 2.667 0 0 0 24 3.999H8a2.667 2.667 0 0 0-2.667 2.667v16A2.667 2.667 0 0 0 8 25.333m16 0H8m16 0V28M8 25.333V28M5.333 14.667h21.333M10.667 20h.013m10.653 0h.013" style="stroke:var(--color1, #fff)"/></symbol><symbol id="icon-calendar-days" viewBox="0 0 32 32"><path fill="none" stroke="#fff" stroke-linecap="round" stroke-linejoin="round" stroke-width="2" d="M10.667 2.667V8m10.666-5.333V8M4 13.333h24m-17.333 5.334h.013m5.32 0h.013m5.32 0h.013M10.667 24h.013M16 24h.013m5.32 0h.013M6.667 5.333h18.667A2.667 2.667 0 0 1 28.001 8v18.667a2.667 2.667 0 0 1-2.667 2.667H6.667A2.667 2.667 0 0 1 4 26.667V8a2.667 2.667 0 0 1 2.667-2.667" style="stroke:var(--color1, #fff)"/></symbol><symbol id="icon-chart-column" viewBox="0 0 32 32"><path fill="none" stroke="#fff" stroke-linecap="round" stroke-linejoin="round" stroke-width="2" d="M4 4v21.333A2.67 2.67 0 0 0 6.667 28H28m-4-5.333V12m-6.667 10.667v-16m-6.666 16v-4" style="stroke:var(--color1, #fff)"/></symbol><symbol id="icon-network" viewBox="0 0 32 32"><path fill="none" stroke="#fff" stroke-linecap="round" stroke-linejoin="round" stroke-width="2.37" d="m17.48 10.219 2.373 3.563m-.97 3.269-4.432 1.899M26.667 5.333l-8.08 2.02M4 4v21.333A2.67 2.67 0 0 0 6.667 28H28M18.667 8a2.667 2.667 0 1 1-5.334 0 2.667 2.667 0 0 1 5.334 0M24 16a2.667 2.667 0 1 1-5.334 0A2.667 2.667 0 0 1 24 16m-9.333 4a2.667 2.667 0 1 1-5.334 0 2.667 2.667 0 0 1 5.334 0" style="stroke:var(--color1, #fff)"/></symbol><symbol id="icon-circle-check" viewBox="0 0 32 32"><path fill="none" stroke="#fff" stroke-linecap="round" stroke-linejoin="round" stroke-width="2.37" d="M29.068 13.333a13.33 13.33 0 0 1-7.719 14.876 13.336 13.336 0 0 1-16.165-4.421 13.34 13.34 0 0 1 .927-16.734 13.33 13.33 0 0 1 16.556-2.608M12 14.667l4 4L29.333 5.334" style="stroke:var(--color1, #fff)"/></symbol><symbol id="icon-clock" viewBox="0 0 32 32"><path fill="none" stroke="#fff" stroke-linecap="round" stroke-linejoin="round" stroke-width="2.37" d="M16 8v8l5.333 2.667m8-2.667c0 7.364-5.97 13.333-13.333 13.333S2.667 23.363 2.667 16 8.637 2.667 16 2.667 29.333 8.637 29.333 16" style="stroke:var(--color1, #fff)"/></symbol><symbol id="icon-close" viewBox="0 0 32 32"><path stroke-linecap="round" stroke-width="2.667" d="M26.667 26.667 5.334 5.334m21.333-.001L5.334 26.666"/></symbol><symbol id="icon-crosshair" viewBox="0 0 32 32"><path fill="none" stroke="#fff" stroke-linecap="round" stroke-linejoin="round" stroke-width="2" d="M29.333 16c0 7.364-5.97 13.333-13.333 13.333M29.333 16c0-7.364-5.97-13.333-13.333-13.333M29.333 16H24m-8 13.333c-7.364 0-13.333-5.97-13.333-13.333M16 29.333V24M2.667 16C2.667 8.636 8.637 2.667 16 2.667M2.667 16H8m8-13.333V8" style="stroke:var(--color1, #fff)"/></symbol><symbol id="icon-cup" viewBox="0 0 32 32"><path fill="none" stroke="#fff" stroke-linecap="round" stroke-width="2" d="M22.667 3.275c.988.188 1.575.396 2.08 1.02.636.781.603 1.625.535 3.313-.24 6.071-1.6 13.725-9.28 13.725S6.961 13.68 6.718 7.608c-.067-1.688-.1-2.533.533-3.313.635-.781 1.393-.909 2.912-1.165A35 35 0 0 1 16 2.667q1.437.003 2.667.091" style="stroke:var(--color1, #fff)"/><path fill="none" stroke="#fff" stroke-width="2" d="m25.333 6.667 1.265.421c1.32.44 1.98.66 2.357 1.184s.377 1.221.377 2.611v.097c0 1.147 0 1.721-.276 2.191s-.779.748-1.781 1.307l-3.943 2.189m-16.665-10-1.265.421c-1.32.44-1.98.66-2.357 1.184s-.377 1.221-.377 2.611v.097c0 1.147 0 1.721.276 2.191s.779.748 1.781 1.307l3.943 2.189" style="stroke:var(--color1, #fff)"/><path fill="none" stroke="#fff" stroke-linecap="round" stroke-width="2" d="M16 22.667v2.667" style="stroke:var(--color1, #fff)"/><path fill="none" stroke="#fff" stroke-linecap="round" stroke-linejoin="round" stroke-width="2" d="M20.667 29.333h-9.333l.453-2.261A1.33 1.33 0 0 1 13.094 26h5.813a1.33 1.33 0 0 1 1.307 1.072z" style="stroke:var(--color1, #fff)"/><path fill="none" stroke="#fff" stroke-linecap="round" stroke-width="2" d="M24 29.333H8" style="stroke:var(--color1, #fff)"/></symbol><symbol id="icon-flame" viewBox="0 0 32 32"><path fill="none" stroke="#fff" stroke-linecap="round" stroke-linejoin="round" stroke-width="2" d="M16 4q1.334 5.333 5.333 8.667c3.999 3.334 4 4.667 4 7.333a9.333 9.333 0 0 1-18.668 0 6.67 6.67 0 0 1 1.333-4 3.333 3.333 0 1 0 6.666 0c0-2.667-2-4-2-6.667q0-2.667 3.333-5.333z" style="stroke:var(--color1, #fff)"/></symbol><symbol id="icon-gallery" viewBox="0 0 32 32"><path fill="none" stroke="#fff" stroke-linecap="round" stroke-linejoin="round" stroke-width="2.37" d="M2.667 9.333v13.333M8 6.667v18.667M16 4h10.667a2.667 2.667 0 0 1 2.667 2.667v18.667a2.667 2.667 0 0 1-2.667 2.667H16a2.667 2.667 0 0 1-2.667-2.667V6.667A2.667 2.667 0 0 1 16 4" style="stroke:var(--color1, #fff)"/></symbol><symbol id="icon-goal" viewBox="0 0 32 32"><path fill="none" stroke="#fff" stroke-linecap="round" stroke-linejoin="round" stroke-width="2" d="M16 17.333V2.666l10.667 5.333L16 13.332m11.415.297A12.002 12.002 0 0 1 11.34 28.39a12 12 0 0 1-7.333-10.696 12.01 12.01 0 0 1 6.675-11.119m-.013 6.754a6.665 6.665 0 0 0 7.14 10.42 6.67 6.67 0 0 0 4.728-7.727" style="stroke:var(--color1, #fff)"/></symbol><symbol id="icon-hourglass" viewBox="0 0 32 32"><path fill="none" stroke="#fff" stroke-linecap="round" stroke-linejoin="round" stroke-width="2.37" d="M6.667 29.333h18.667M6.667 2.667h18.667m-2.667 26.666V23.77c0-.707-.281-1.385-.781-1.885L16.001 16M16 16l-5.885 5.885c-.5.5-.781 1.178-.781 1.885v5.563M16 16l-5.885-5.885c-.5-.5-.781-1.178-.781-1.885V2.667M16 16l5.885-5.885c.5-.5.781-1.178.781-1.885V2.667" style="stroke:var(--color1, #fff)"/></symbol><symbol id="icon-layers" viewBox="0 0 32 32"><path fill="none" stroke="#fff" stroke-linecap="round" stroke-linejoin="round" stroke-width="2" d="M2.667 16a1.33 1.33 0 0 0 .773 1.213l11.467 5.213a2.68 2.68 0 0 0 2.2 0l11.44-5.2A1.34 1.34 0 0 0 29.334 16M2.667 22.667a1.33 1.33 0 0 0 .773 1.213l11.467 5.213a2.68 2.68 0 0 0 2.2 0l11.44-5.2a1.34 1.34 0 0 0 .787-1.226M17.107 2.906a2.67 2.67 0 0 0-2.214 0l-11.427 5.2a1.33 1.33 0 0 0-.795 1.22 1.33 1.33 0 0 0 .795 1.22l11.44 5.213a2.67 2.67 0 0 0 2.214 0l11.44-5.2a1.33 1.33 0 0 0 .795-1.22 1.33 1.33 0 0 0-.795-1.22z" style="stroke:var(--color1, #fff)"/></symbol><symbol id="icon-layout-panel" viewBox="0 0 32 32"><path fill="none" stroke="#fff" stroke-linecap="round" stroke-linejoin="round" stroke-width="2" d="M12 4H5.333C4.597 4 4 4.597 4 5.333v21.333c0 .736.597 1.333 1.333 1.333H12c.736 0 1.333-.597 1.333-1.333V5.333C13.333 4.597 12.736 4 12 4m14.667 0H20c-.736 0-1.333.597-1.333 1.333V12c0 .736.597 1.333 1.333 1.333h6.667c.736 0 1.333-.597 1.333-1.333V5.333C28 4.597 27.403 4 26.667 4m0 14.667H20c-.736 0-1.333.597-1.333 1.333v6.667c0 .736.597 1.333 1.333 1.333h6.667c.736 0 1.333-.597 1.333-1.333V20c0-.736-.597-1.333-1.333-1.333" style="stroke:var(--color1, #fff)"/></symbol><symbol id="icon-medal" viewBox="0 0 32 32"><path fill="none" stroke="#fff" stroke-linecap="round" stroke-width="2" d="m9.801 20-.849 3.097c-.837 3.056-1.256 4.584-.697 5.42.196.293.459.528.764.684.869.443 2.213-.257 4.9-1.657.893-.467 1.341-.699 1.816-.749q.265-.027.531 0c.475.051.921.284 1.816.749 2.687 1.4 4.031 2.1 4.9 1.657.305-.156.568-.391.764-.684.56-.836.14-2.364-.697-5.42L22.2 20" style="stroke:var(--color1, #fff)"/><path fill="none" stroke="#fff" stroke-linecap="round" stroke-width="2" d="M7.333 8.529a9.33 9.33 0 0 0 3.526 11.26 9.334 9.334 0 1 0 1.67-16.456" style="stroke:var(--color1, #fff)"/></symbol><symbol id="icon-menu" viewBox="0 0 32 32"><path stroke-linecap="round" stroke-linejoin="round" stroke-width="2.064" d="M5.333 6.667h21.333M5.333 16h21.333M5.333 25.333h21.333"/></symbol><symbol id="icon-message" viewBox="0 0 32 32"><path fill="none" stroke="#fff" stroke-linecap="round" stroke-linejoin="round" stroke-width="2" d="M3.989 21.79c.196.495.24 1.036.125 1.556l-1.42 4.387a1.332 1.332 0 0 0 1.647 1.557l4.551-1.331c.49-.097.998-.055 1.465.123a13.33 13.33 0 0 0 16.585-4.464A13.334 13.334 0 1 0 3.987 21.79z" style="stroke:var(--color1, #fff)"/></symbol><symbol id="icon-omega" viewBox="0 0 32 32"><path fill="none" stroke="#fff" stroke-linecap="round" stroke-linejoin="round" stroke-width="2" d="M4 26.667h6a.665.665 0 0 0 .666-.666v-.376a.69.69 0 0 0-.33-.583 10.667 10.667 0 1 1 15.913-11.988 10.67 10.67 0 0 1-4.588 11.986.7.7 0 0 0-.329.584V26a.665.665 0 0 0 .666.666h6" style="stroke:var(--color1, #fff)"/></symbol><symbol id="icon-puzzle" viewBox="0 0 32 32"><path fill="none" stroke="#fff" stroke-linecap="round" stroke-linejoin="round" stroke-width="2" d="M20.52 5.853a1.34 1.34 0 0 0 1.305.341 1.34 1.34 0 0 0 .934-.972 3.33 3.33 0 0 1 2.337-2.43 3.33 3.33 0 0 1 4.13 2.368 3.34 3.34 0 0 1-2.447 4.082 1.33 1.33 0 0 0-.98 1.633c.06.229.18.439.348.606l2.244 2.243A3.23 3.23 0 0 1 29.334 16a3.22 3.22 0 0 1-.943 2.276l-2.244 2.244a1.34 1.34 0 0 1-1.305.341 1.34 1.34 0 0 1-.934-.973 3.33 3.33 0 0 0-2.337-2.43 3.33 3.33 0 0 0-3.261.852 3.335 3.335 0 0 0 1.579 5.598 1.33 1.33 0 0 1 .98 1.633 1.33 1.33 0 0 1-.348.606l-2.244 2.243a3.23 3.23 0 0 1-2.276.943 3.22 3.22 0 0 1-2.276-.943l-2.244-2.244a1.34 1.34 0 0 0-1.305-.341 1.33 1.33 0 0 0-.934.973 3.33 3.33 0 0 1-2.337 2.43 3.33 3.33 0 0 1-3.261-.852 3.33 3.33 0 0 1-.851-3.262 3.34 3.34 0 0 1 2.43-2.336 1.33 1.33 0 0 0 .98-1.633 1.33 1.33 0 0 0-.348-.606l-2.244-2.243A3.23 3.23 0 0 1 2.668 16a3.22 3.22 0 0 1 .943-2.276l2.244-2.244a1.34 1.34 0 0 1 1.305-.341 1.34 1.34 0 0 1 .934.973 3.33 3.33 0 0 0 2.337 2.43 3.34 3.34 0 0 0 3.261-.852c.419-.419.719-.942.868-1.516s.143-1.176-.017-1.746a3.34 3.34 0 0 0-2.43-2.336 1.33 1.33 0 0 1-.98-1.633c.06-.229.18-.439.348-.606l2.244-2.243a3.23 3.23 0 0 1 2.276-.943 3.22 3.22 0 0 1 2.276.943l2.244 2.244z" style="stroke:var(--color1, #fff)"/></symbol><symbol id="icon-rating" viewBox="0 0 32 32"><path fill="#fdc700" stroke="#fdc700" stroke-linecap="round" stroke-linejoin="round" stroke-width="2.667" d="M15.367 3.06a.708.708 0 0 1 1.268 0l3.08 6.239a2.82 2.82 0 0 0 2.127 1.546l6.888 1.008a.706.706 0 0 1 .392 1.206l-4.981 4.851a2.83 2.83 0 0 0-.814 2.504l1.176 6.853a.705.705 0 0 1-.647.828.7.7 0 0 1-.381-.081l-6.157-3.237a2.83 2.83 0 0 0-2.63 0l-6.156 3.237c-.117.062-.249.09-.381.08s-.259-.056-.366-.133a.71.71 0 0 1-.281-.694l1.175-6.852a2.82 2.82 0 0 0-.815-2.505l-4.981-4.849a.71.71 0 0 1-.181-.726.7.7 0 0 1 .574-.482l6.887-1.007c.454-.066.885-.241 1.255-.511s.671-.625.874-1.036l3.079-6.239z" style="fill:var(--color3, #fdc700);stroke:var(--color3, #fdc700)"/></symbol><symbol id="icon-refresh" viewBox="0 0 32 32"><path fill="none" stroke="#fff" stroke-linecap="round" stroke-linejoin="round" stroke-width="2.37" d="M28 16A12.003 12.003 0 0 0 16 4a13 13 0 0 0-8.987 3.653L4 10.666m0 .001V4m0 6.667h6.667M4 16a12.003 12.003 0 0 0 12 12 13 13 0 0 0 8.987-3.653L28 21.334m0-.001h-6.667m6.667 0V28" style="stroke:var(--color1, #fff)"/></symbol><symbol id="icon-sparkles" viewBox="0 0 32 32"><path fill="none" stroke="#fff" stroke-linecap="round" stroke-linejoin="round" stroke-width="2" d="M26.667 2.667V8m2.666-2.667H24m-9.311-1.581A1.33 1.33 0 0 1 16 2.663a1.335 1.335 0 0 1 1.311 1.089l1.401 7.411a2.66 2.66 0 0 0 2.126 2.126l7.411 1.401a1.33 1.33 0 0 1 1.089 1.311 1.335 1.335 0 0 1-1.089 1.311l-7.411 1.401c-.527.099-1.012.355-1.391.735s-.635.864-.735 1.391l-1.401 7.411A1.33 1.33 0 0 1 16 29.339a1.33 1.33 0 0 1-1.311-1.089l-1.401-7.411a2.67 2.67 0 0 0-2.126-2.126l-7.411-1.401a1.33 1.33 0 0 1-1.089-1.311 1.33 1.33 0 0 1 1.089-1.311l7.411-1.401a2.66 2.66 0 0 0 2.126-2.126zM8 26.667a2.667 2.667 0 1 1-5.334 0 2.667 2.667 0 0 1 5.334 0" style="stroke:var(--color1, #fff)"/></symbol><symbol id="icon-theater" viewBox="0 0 32 32"><path fill="none" stroke="#fff" stroke-linecap="round" stroke-linejoin="round" stroke-width="2" d="M2.667 13.333s4-4 4-10.667m-4 10.667c5.867 0 10.667-4.8 10.667-10.667M2.667 13.333S5.334 16 5.334 20m23.999-6.667s-4-4-4-10.667m4 10.667c-5.867 0-10.667-4.8-10.667-10.667m10.667 10.667S26.666 16 26.666 20m-15.999 0h10.667M2.667 29.333V28a2.67 2.67 0 0 1 2.667-2.667h5.333A2.67 2.67 0 0 1 13.334 28v1.333m5.333 0V28a2.67 2.67 0 0 1 2.667-2.667h5.333A2.67 2.67 0 0 1 29.334 28v1.333" style="stroke:var(--color1, #fff)"/></symbol><symbol id="icon-trend" viewBox="0 0 32 32"><path fill="none" stroke="#fff" stroke-linecap="round" stroke-linejoin="round" stroke-width="2.37" d="M21.333 9.333h8m0 0v8m0-8L18 20.666l-6.667-6.667-8.667 8.667" style="stroke:var(--color1, #fff)"/></symbol><symbol id="icon-trophy" viewBox="0 0 32 32"><path fill="none" stroke="#fff" stroke-linecap="round" stroke-linejoin="round" stroke-width="2" d="M13.333 19.547v2.168a2.67 2.67 0 0 1-1.301 2.262 6.66 6.66 0 0 0-2.698 5.328m9.333-9.758v2.168a2.67 2.67 0 0 0 1.301 2.262 6.66 6.66 0 0 1 2.698 5.328M24 12h2a3.333 3.333 0 1 0 0-6.666h-2M24 12a8 8 0 1 1-16 0m16 0V4a1.334 1.334 0 0 0-1.334-1.334H9.333A1.335 1.335 0 0 0 7.999 4v8M5.333 29.333h21.333M8 12H6a3.333 3.333 0 1 1 0-6.666h2" style="stroke:var(--color1, #fff)"/></symbol><symbol id="icon-users" viewBox="0 0 32 32"><path fill="none" stroke="#fff" stroke-linecap="round" stroke-linejoin="round" stroke-width="2.667" d="M21.333 28v-2.667A5.334 5.334 0 0 0 16 20H8a5.33 5.33 0 0 0-5.333 5.333V28M21.333 4.171a5.33 5.33 0 0 1 3.995 5.163 5.334 5.334 0 0 1-3.995 5.163m8 13.503v-2.667a5.334 5.334 0 0 0-4-5.16M12 14.667A5.333 5.333 0 1 0 12 4a5.333 5.333 0 0 0 0 10.667" style="stroke:var(--color1, #fff)"/></symbol><symbol id="icon-calculator" viewBox="0 0 45 45" fill="none">
  <path d="M33.75 3.75H11.25C9.17893 3.75 7.5 5.42893 7.5 7.5V37.5C7.5 39.5711 9.17893 41.25 11.25 41.25H33.75C35.8211 41.25 37.5 39.5711 37.5 37.5V7.5C37.5 5.42893 35.8211 3.75 33.75 3.75Z" stroke="white" stroke-width="3.33333" stroke-linecap="round" stroke-linejoin="round" />
  <path d="M15 11.25H30" stroke="white" stroke-width="3.33333" stroke-linecap="round" stroke-linejoin="round" />
  <path d="M30 26.25V33.75" stroke="white" stroke-width="3.33333" stroke-linecap="round" stroke-linejoin="round" />
  <path d="M30 18.75H30.0167" stroke="white" stroke-width="3.33333" stroke-linecap="round" stroke-linejoin="round" />
  <path d="M22.5 18.75H22.5167" stroke="white" stroke-width="3.33333" stroke-linecap="round" stroke-linejoin="round" />
  <path d="M15 18.75H15.0167" stroke="white" stroke-width="3.33333" stroke-linecap="round" stroke-linejoin="round" />
  <path d="M22.5 26.25H22.5167" stroke="white" stroke-width="3.33333" stroke-linecap="round" stroke-linejoin="round" />
  <path d="M15 26.25H15.0167" stroke="white" stroke-width="3.33333" stroke-linecap="round" stroke-linejoin="round" />
  <path d="M22.5 33.75H22.5167" stroke="white" stroke-width="3.33333" stroke-linecap="round" stroke-linejoin="round" />
  <path d="M15 33.75H15.0167" stroke="white" stroke-width="3.33333" stroke-linecap="round" stroke-linejoin="round" />
</symbol><symbol id="icon-bulb" viewBox="0 0 45 45" fill="none">
  <path d="M28.125 26.25C28.5 24.375 29.4375 23.0625 30.9375 21.5625C32.8125 19.875 33.75 17.4375 33.75 15C33.75 12.0163 32.5647 9.15483 30.455 7.04505C28.3452 4.93526 25.4837 3.75 22.5 3.75C19.5163 3.75 16.6548 4.93526 14.545 7.04505C12.4353 9.15483 11.25 12.0163 11.25 15C11.25 16.875 11.625 19.125 14.0625 21.5625C15.375 22.875 16.5 24.375 16.875 26.25" stroke="white" stroke-width="3.33333" stroke-linecap="round" stroke-linejoin="round" />
  <path d="M16.875 33.75H28.125" stroke="white" stroke-width="3.33333" stroke-linecap="round" stroke-linejoin="round" />
  <path d="M18.75 41.25H26.25" stroke="white" stroke-width="3.33333" stroke-linecap="round" stroke-linejoin="round" />
</symbol></defs></svg>